<svg width="624" height="624" viewBox="0 0 624 624" fill="none" xmlns="http://www.w3.org/2000/svg">
<rect width="624" height="624" fill="#101010"/>
<path d="M235.858 151.767C233.015 149.262 232.763 146.222 235.163 143.365L237.151 141L244.75 141.328C257.367 141.874 266.67 145.925 275.749 154.826C283.719 162.641 288.753 173.043 290.486 185.28C290.886 188.105 291.191 188.651 292.146 188.249C305.145 182.768 317.863 182.298 329.216 186.88C331.568 187.828 333.567 188.531 333.658 188.439C333.749 188.349 334.482 185.04 335.286 181.087C340.105 157.404 359.032 141.202 381.928 141.161C387.308 141.151 388.063 141.323 389.655 142.917C392.128 145.393 391.999 148.598 389.318 151.283C387.402 153.201 386.78 153.387 382.261 153.387C372.862 153.387 363.893 157.327 357.05 164.465C350.415 171.384 347.732 177.71 346.086 190.304L345.194 197.132L347.721 200.272C354.265 208.4 356.912 215.544 357.42 226.443C358.003 238.906 355.19 247.699 347.233 258.301L343.851 262.807L312.505 262.619L281.16 262.432L277.752 258.195C264.113 241.239 263.65 218.331 276.596 200.981L279.482 197.113L279.001 191.801C278.332 184.4 276.119 176.236 273.576 171.785C266.967 160.217 255.394 153.387 242.403 153.387C238.545 153.387 237.364 153.094 235.858 151.767Z" fill="#D4B56A"/>
<path d="M106.082 292.662C104.606 286.334 103.478 274.192 104.25 272.94C104.602 272.372 128.44 272.155 188.965 272.172L273.191 272.195L243.006 302.103C226.403 318.553 210.851 333.433 208.444 335.17C197.889 342.787 186.629 346.393 172.931 346.545C162.918 346.656 156.154 345.429 147.629 341.954C127.344 333.687 111.179 314.509 106.082 292.662Z" fill="#D4B56A"/>
<path d="M416.434 334.884C414.337 333.307 399.2 318.546 382.798 302.082L352.974 272.148H436.987H521L520.577 280.246C520.052 290.295 518.143 297.867 513.919 306.657C503.217 328.925 484.357 343.063 461.017 346.314C446.203 348.376 428.257 343.776 416.434 334.884Z" fill="#D4B56A"/>
<path d="M264.038 300.579C269.124 293.058 275.043 284.408 277.192 281.357L281.097 275.811L312.471 275.779L343.844 275.747L350.279 284.924C361.425 300.818 370.093 313.899 369.725 314.268C369.53 314.464 343.59 314.541 312.08 314.439L254.79 314.255L264.038 300.579Z" fill="#D4B56A"/>
<path d="M241.434 358.701C241.883 349.378 243.432 341.367 246.243 333.844L247.781 329.73H312.449H377.118L378.246 332.429C381.049 339.142 382.952 348.848 383.326 358.341L383.701 367.878H312.346H240.992L241.434 358.701Z" fill="#D4B56A"/>
<path d="M257.189 414.42C250.891 404.374 244.084 388.727 244.084 384.297C244.084 383.047 246.93 382.993 312.72 382.993C350.471 382.993 381.357 383.151 381.357 383.344C381.357 383.537 380.356 386.857 379.133 390.722C376.807 398.068 371.378 409.241 366.721 416.268L363.987 420.392L314.277 420.587C286.937 420.693 263.736 420.671 262.72 420.538C261.293 420.351 260.035 418.959 257.189 414.42Z" fill="#D4B56A"/>
<path d="M303.266 472.383C285.805 451.243 273.551 436.182 273.551 435.862C273.551 435.683 291.015 435.536 312.361 435.536C333.707 435.536 351.171 435.747 351.171 436.005C351.171 436.891 313.093 483.067 312.417 483C312.188 482.978 308.071 478.2 303.266 472.383Z" fill="#D4B56A"/>
</svg>
