<svg width="698" height="145" viewBox="0 0 698 145" fill="none" xmlns="http://www.w3.org/2000/svg">
<path d="M88.4404 124.876C97.4948 124.876 104.904 124.966 104.914 125.075C104.914 125.45 88.7612 145.016 88.4648 145C88.3678 144.991 86.6194 142.965 84.5801 140.499C77.1686 131.536 71.9678 125.15 71.9678 125.015C71.9709 124.939 79.3821 124.876 88.4404 124.876ZM88.5938 102.6C104.595 102.6 117.691 102.666 117.727 102.748C117.727 102.83 117.301 104.238 116.782 105.876C115.795 108.99 113.491 113.728 111.515 116.707L110.354 118.456L89.2539 118.538C77.6496 118.583 67.8023 118.574 67.3701 118.518C66.7646 118.438 66.2302 117.848 65.0225 115.924C62.3492 111.665 59.46 105.031 59.46 103.152C59.46 102.622 60.6685 102.6 88.5938 102.6ZM470.941 52.2246C472.962 52.1341 474.937 52.1836 475.331 52.335C475.863 52.539 475.532 53.7108 474.043 56.8867C472.94 59.2395 466.695 73.0098 460.165 87.4883L448.293 113.813L444.091 113.974C441.779 114.062 439.888 113.917 439.888 113.651C439.889 113.384 441.88 108.901 444.314 103.688L448.741 94.2051L446.006 88.1055C444.502 84.7501 440.316 75.4143 436.706 67.3604C433.096 59.3059 430.221 52.6374 430.317 52.542C430.414 52.446 432.411 52.3719 434.757 52.3779L439.022 52.3877L445.9 68.415C449.681 77.2237 452.913 84.4392 453.087 84.457C453.256 84.4653 455.206 80.234 457.419 75.0547C459.632 69.8749 462.754 62.6556 464.355 59.0127L467.269 52.3877L470.941 52.2246ZM623.763 51.6035C639.836 48.4416 653.64 61.7314 651.124 77.9453C649.446 88.759 641.857 95.9685 630.683 97.3643C619.517 98.7589 608.462 90.7346 606.048 79.4844C603.312 66.7309 611.376 54.0408 623.763 51.6035ZM300.546 52.0117C304.734 50.9171 306.305 50.844 310.564 51.541C324.095 53.7568 332.319 66.7576 328.78 80.3398C326.387 89.5267 319.833 95.4688 310.283 97.1104C300.676 98.7623 290.503 93.8409 286.349 85.5303C279.382 71.5921 286.074 55.7932 300.546 52.0117ZM402.132 51.5713C405.499 50.8617 411.369 51.3787 414.887 52.6943C422.503 55.5435 427.818 64.2405 427.818 73.8525V76.2451H410.264C390.525 76.2451 391.944 75.8658 393.766 80.6592C396.201 87.0661 400.486 89.9646 407.491 89.9443C412.483 89.9301 415.521 88.7325 418.869 85.46L421.165 83.2158L423.943 84.998C425.471 85.978 426.721 87.0118 426.722 87.2949C426.722 88.5585 421.352 93.3913 418.255 94.916C409.256 99.3452 398.549 97.8232 391.445 91.1064C383.732 83.8127 382.218 71.0644 387.932 61.5127C390.924 56.5103 396.193 52.8223 402.132 51.5713ZM573.47 51.3701C576.308 50.9407 582.013 51.5696 585.098 52.6533C589.351 54.1478 592.822 56.8572 595.505 60.7773C598.608 65.3097 599.257 67.7231 599.23 74.6006C599.201 82.0684 597.988 85.3384 593.452 90.1865C586.639 97.4682 576.104 99.4566 566.825 95.21C558.785 91.5299 553.986 83.743 554.001 74.4053C554.021 62.1421 561.609 53.1657 573.47 51.3701ZM516.909 57.332C519.335 53.6314 527.066 50.5788 532.266 51.2686C538.317 52.0709 542.427 54.961 544.777 60.0664C545.995 62.7105 546.046 63.4138 546.207 79.6982L546.373 96.5869L542.377 96.4258L538.381 96.2637L538.222 81.7295C538.134 73.7361 537.934 66.4015 537.777 65.4297C537.621 64.4585 536.836 62.8826 536.032 61.9277C531.296 56.3007 521.788 58.2718 518.561 65.5508C518.293 66.1541 517.948 73.3116 517.794 81.4561L517.514 96.2637H509.833L509.559 80.2607C509.299 65.1121 509.223 64.1743 508.137 62.71C503.764 56.8151 495.201 57.4181 491.181 63.9033L489.535 66.5586L489.365 81.5713L489.196 96.585L485.353 96.4248L481.509 96.2637L481.431 74.3262L481.352 52.3877H488.986L489.154 54.707L489.323 57.0264L492.027 54.8896C494.466 52.9631 496.044 52.2086 499.41 51.3613C500.967 50.9693 505.265 51.3879 508.029 52.2012C509.599 52.663 511.324 53.8499 513.215 55.7705L516.047 58.6475L516.909 57.332ZM355.583 51.5625C358.226 51.0086 363.363 51.341 365.96 52.2344C370.53 53.8063 373.651 57.1083 375.381 62.2031C376.396 65.193 376.902 78.9148 376.399 89.8242L376.09 96.5381H368.571L368.567 83.7861C368.566 76.7728 368.328 69.5889 368.038 67.8213C367.397 63.9087 365.457 61.1662 362.325 59.7441C355.783 56.7748 348.054 60.5918 346.127 67.7441C345.782 69.0264 345.535 75.4764 345.533 83.2627L345.53 96.5859L337.575 96.2637V52.3877L339.746 52.2109C340.94 52.1139 342.729 52.1866 343.723 52.373C345.453 52.6977 345.53 52.8181 345.53 55.2188V57.7266L347.691 55.7734C350.331 53.389 352.572 52.1943 355.583 51.5625ZM677.616 51.5625C684.209 50.1837 691.578 52.9074 694.926 57.959C697.668 62.097 698 64.6065 698 81.1816V96.2637L690.045 96.5859V83.1523C690.045 75.3951 689.789 68.5208 689.438 66.8848C687.582 58.2372 676.539 55.7847 670.486 62.6758C667.708 65.8396 667.473 67.3297 667.371 82.4209L667.278 96.2637L663.302 96.4248L659.324 96.5859V52.3877H666.73L666.897 54.9932C666.989 56.4257 667.148 57.5986 667.251 57.5986C667.355 57.5972 668.25 56.8386 669.242 55.9121C671.481 53.8216 674.627 52.1877 677.616 51.5625ZM270.236 31.9355L274.487 32.0957V96.2637L270.236 96.4238L265.984 96.584V68.0186H229.796L229.649 82.1416L229.503 96.2637L225.251 96.4238L221 96.584V31.7754L225.251 31.9355L229.503 32.0957L229.649 45.9443L229.796 59.792H265.984V31.7754L270.236 31.9355ZM116.406 81.1611C117.596 84.0071 118.404 88.1226 118.562 92.1475L118.722 96.1904H58.1475L58.335 92.2998C58.5256 88.3474 59.1839 84.9512 60.377 81.7617L61.0293 80.0176H115.928L116.406 81.1611ZM634.181 59.7666C626.652 56.3728 616.962 60.8344 614.602 68.7803C611.363 79.6822 618.02 89.9453 628.329 89.9453C636.733 89.9451 642.879 83.5397 642.962 74.6924C643.03 67.4447 640.076 62.4238 634.181 59.7666ZM581.635 59.3623C578.941 58.5665 574.178 58.581 571.645 59.3916C570.64 59.713 568.617 61.0554 567.149 62.375C563.466 65.6854 562.029 69.516 562.354 75.1484C562.873 84.0951 568.548 89.9228 576.761 89.9395C587.178 89.9608 593.737 79.716 590.431 68.5859C589.334 64.8938 585.009 60.3594 581.635 59.3623ZM312.614 59.8369C309.377 58.3721 303.878 58.3271 300.765 59.7402C297.798 61.0878 294.645 64.3023 293.23 67.4219C291.645 70.9188 291.636 77.7199 293.213 81.1816C294.866 84.8095 296.93 86.9754 300.311 88.6289C302.968 89.9286 303.785 90.0691 307.359 89.8398C310.455 89.6413 311.999 89.2309 313.951 88.0869C318.904 85.1851 321.726 79.3733 321.268 73.0186C320.824 66.8645 317.73 62.1519 312.614 59.8369ZM176.82 59.0371C176.598 63.2973 175.787 66.5079 173.994 70.2344C169.452 79.6756 161.446 85.6697 151.539 87.0479C145.251 87.9223 137.634 85.972 132.616 82.2021C131.726 81.5335 125.301 75.2752 118.339 68.2949L105.68 55.6035H177L176.82 59.0371ZM71.8145 55.623L59.002 68.3037C51.9554 75.2778 45.3543 81.5862 44.332 82.3232C39.852 85.5527 35.0728 87.082 29.2588 87.1465C25.0088 87.1935 22.1371 86.6734 18.5186 85.2002C9.90844 81.6951 3.0473 73.5635 0.883789 64.3008C0.257219 61.618 -0.221182 56.4701 0.106445 55.9395C0.263723 55.6986 10.3844 55.6063 36.0645 55.6133L71.8145 55.623ZM104.535 61.0205C109.266 67.7592 112.946 73.3057 112.789 73.4619C112.678 73.5447 101.678 73.5772 88.3213 73.5342L64.0039 73.4561L67.9297 67.6582C70.0886 64.4692 72.6009 60.8011 73.5127 59.5078L75.1709 57.1572L101.804 57.1299L104.535 61.0205ZM411.909 59.29C407.719 57.3909 402.19 58.0448 398.154 60.918C396.249 62.2743 393.27 67.1829 393.263 68.9785L393.258 70.2129H419.677L419.292 68.4297C418.349 64.0632 415.986 61.1377 411.909 59.29ZM59.7422 0.139648C65.0976 0.370964 69.0468 2.08832 72.9004 5.8623C76.2834 9.17574 78.4198 13.5858 79.1553 18.7734C79.3252 19.9715 79.4549 20.2028 79.8604 20.0322C85.3779 17.7088 90.7757 17.5099 95.5947 19.4521C96.5915 19.8537 97.4391 20.1509 97.4805 20.1133C97.5189 20.0748 97.8305 18.672 98.1719 16.9961C100.217 6.95493 108.251 0.0857538 117.97 0.0683594C120.253 0.0640951 120.574 0.136717 121.249 0.8125C122.299 1.86218 122.244 3.22117 121.106 4.35938C120.293 5.17264 120.029 5.25195 118.11 5.25195C114.121 5.25203 110.314 6.9221 107.409 9.94824C104.593 12.8818 103.454 15.5645 102.756 20.9043L102.377 23.7988L103.45 25.1299C106.227 28.576 107.351 31.6047 107.566 36.2256C107.814 41.5095 106.62 45.2377 103.242 49.7324L101.808 51.6436L88.502 51.5635L75.1973 51.4844L73.751 49.6875C67.9619 42.4988 67.7651 32.7863 73.2598 25.4307L74.4854 23.79L74.2812 21.5381C73.9972 18.4004 73.0571 14.9392 71.9775 13.0518C69.1724 8.14765 64.2603 5.25195 58.7461 5.25195C57.109 5.25195 56.6076 5.12778 55.9688 4.56543C54.762 3.50324 54.6545 2.21404 55.6729 1.00293L56.5176 0L59.7422 0.139648Z" fill="#D4B56A"/>
</svg>
